<svg width="40" height="45" viewBox="0 0 166 151" fill="none" xmlns="http://www.w3.org/2000/svg">
<path d="M0 3H37.5473C39.4301 3 41.058 4.31294 41.4566 6.15297L47.4903 34M47.4903 34L60.024 91.847C60.4227 93.6871 62.0506 95 63.9333 95H142.03C143.78 95 145.327 93.862 145.849 92.1911L162.381 39.1911C163.184 36.6158 161.26 34 158.562 34H47.4903Z" stroke="black" stroke-width="5"/>
<path d="M89 34L91 95" stroke="black" stroke-width="5"/>
<path d="M125 34L123 95" stroke="black" stroke-width="5"/>
<path d="M54 65H156" stroke="black" stroke-width="5"/>
<circle cx="133" cy="132" r="12.5" fill="white" stroke="black" stroke-width="5"/>
<g filter="url(#filter0_d_2_19)">
<circle cx="82" cy="132" r="15" fill="white"/>
<circle cx="82" cy="132" r="12.5" stroke="black" stroke-width="5"/>
</g>
<path d="M157 117H45.2051C40.6736 117 37 113.326 37 108.795V108.795C37 102.281 42.2807 97 48.7949 97H88H147" stroke="black" stroke-width="5"/>
<defs>
<filter id="filter0_d_2_19" x="63" y="113" width="38" height="38" filterUnits="userSpaceOnUse" color-interpolation-filters="sRGB">
<feFlood flood-opacity="0" result="BackgroundImageFix"/>
<feColorMatrix in="SourceAlpha" type="matrix" values="0 0 0 0 0 0 0 0 0 0 0 0 0 0 0 0 0 0 127 0" result="hardAlpha"/>
<feOffset/>
<feGaussianBlur stdDeviation="2"/>
<feComposite in2="hardAlpha" operator="out"/>
<feColorMatrix type="matrix" values="0 0 0 0 0 0 0 0 0 0 0 0 0 0 0 0 0 0 0.25 0"/>
<feBlend mode="normal" in2="BackgroundImageFix" result="effect1_dropShadow_2_19"/>
<feBlend mode="normal" in="SourceGraphic" in2="effect1_dropShadow_2_19" result="shape"/>
</filter>
</defs>
</svg>
