<svg width="38" height="40" viewBox="0 0 38 40" fill="none" xmlns="http://www.w3.org/2000/svg">
<path d="M25.9682 5.52449C22.8422 5.53397 20.1521 7.0961 18.6896 9.67474C17.2128 7.105 14.5141 5.5592 11.3881 5.56867C9.14613 5.57829 6.99936 6.51759 5.41864 8.18053C3.83793 9.84347 2.95235 12.0943 2.95614 14.4392C2.96822 18.7992 5.60525 23.3479 10.7794 27.9561C13.1684 30.0699 15.7467 31.9379 18.4786 33.5341C18.5639 33.5819 18.6591 33.6067 18.7558 33.6064C18.8526 33.6061 18.9477 33.5807 19.0327 33.5324C21.7556 31.9197 24.3236 30.0361 26.7008 27.9078C31.8494 23.2684 34.4612 18.7038 34.4491 14.3438C34.4399 11.9989 33.5419 9.75346 31.952 8.10013C30.3621 6.44679 28.2101 5.52052 25.9682 5.52449ZM18.7522 32.298C16.7076 31.0903 4.14708 23.2913 4.12255 14.4357C4.11926 12.4142 4.88269 10.4738 6.24538 9.04025C7.60806 7.60668 9.45874 6.79695 11.3915 6.78867C14.4693 6.77934 17.0606 8.49627 18.1545 11.2685C18.1988 11.3802 18.2738 11.4757 18.37 11.5427C18.4662 11.6098 18.5794 11.6454 18.695 11.645C18.8106 11.6447 18.9236 11.6084 19.0194 11.5408C19.1153 11.4731 19.1898 11.3772 19.2334 11.2652C20.312 8.48642 22.8937 6.75381 25.9715 6.74449C27.9043 6.74105 29.7594 7.53955 31.13 8.96485C32.5006 10.3901 33.2748 12.3258 33.2827 14.3474C33.3072 23.1923 20.7901 31.0779 18.7522 32.298Z" fill="black"/>
</svg>
