<?xml version="1.0" standalone="no"?>
<!DOCTYPE svg PUBLIC "-//W3C//DTD SVG 20010904//EN"
 "http://www.w3.org/TR/2001/REC-SVG-20010904/DTD/svg10.dtd">
<svg version="1.0" xmlns="http://www.w3.org/2000/svg"
 width="150" height="150" viewBox="0 0 511.000000 478.000000"
 preserveAspectRatio="xMidYMid meet">

<g transform="translate(0.000000,478.000000) scale(0.100000,-0.100000)"
fill="#000000" stroke="none">
<path d="M2395 4446 c-17 -7 -36 -20 -44 -29 -9 -12 -29 -17 -62 -17 -59 0
-99 -29 -102 -75 -2 -28 1 -30 36 -33 20 -2 52 4 69 12 17 9 32 15 33 14 19
-36 39 -58 55 -63 25 -8 37 -50 20 -70 -17 -20 -4 -32 18 -19 9 6 18 25 20 41
2 20 10 33 22 36 24 6 52 50 44 71 -9 25 -19 19 -29 -16 -8 -26 -16 -34 -38
-36 -34 -4 -87 45 -87 80 0 24 20 64 20 41 0 -19 37 -53 58 -53 31 0 45 18 51
62 l6 43 32 -31 c37 -37 56 -97 44 -140 -23 -81 -72 -134 -196 -213 -75 -48
-81 -50 -95 -34 -39 47 -72 63 -127 63 -91 0 -157 -48 -196 -142 -15 -35 -17
-37 -47 -28 -42 12 -84 3 -108 -24 -30 -33 -34 -54 -12 -66 24 -13 86 -13 111
0 17 10 19 7 19 -33 0 -24 -3 -46 -6 -50 -3 -3 -20 3 -37 14 -51 31 -103 25
-143 -15 -25 -25 -34 -43 -34 -67 0 -44 33 -97 65 -105 30 -7 75 18 75 43 0
15 -1 15 -18 0 -41 -38 -92 -5 -92 59 0 43 11 50 26 14 11 -25 19 -30 47 -30
40 0 57 15 57 52 0 36 16 36 35 -2 18 -34 20 -92 4 -123 -31 -60 -83 -92 -167
-103 l-47 -6 -15 49 c-12 38 -22 51 -50 65 -66 32 -99 0 -68 -67 6 -14 9 -27
7 -29 -7 -8 -99 15 -99 25 0 13 -56 39 -85 39 -33 0 -85 -27 -85 -44 0 -18 41
-53 71 -61 16 -4 42 0 65 10 34 14 49 15 120 4 l81 -12 -23 -35 c-15 -22 -24
-49 -24 -73 0 -37 2 -39 31 -39 47 0 89 47 89 99 0 36 3 41 28 46 162 34 211
89 212 238 0 42 3 77 6 77 3 0 19 -11 36 -25 52 -44 78 -30 78 40 0 25 -8 40
-34 63 -19 16 -40 32 -46 34 -18 6 -4 57 29 110 50 78 151 103 217 53 36 -28
53 -80 36 -111 -9 -16 -10 -15 -17 5 -17 53 -105 42 -105 -14 0 -32 -17 -32
-32 0 -10 22 -8 29 12 50 29 31 20 44 -15 21 -50 -33 -26 -114 40 -136 69 -23
132 15 144 86 6 34 13 42 91 87 98 58 192 149 210 202 16 49 8 130 -17 163
-28 38 -81 72 -112 72 -14 -1 -40 -7 -56 -14z m55 -41 c17 -20 5 -45 -20 -45
-11 0 -23 7 -26 15 -6 15 11 45 26 45 4 0 13 -7 20 -15z m-130 -38 c0 -22 -35
-47 -74 -54 -43 -7 -48 8 -14 44 24 26 88 33 88 10z m-112 -455 c4 -28 -24
-41 -44 -20 -20 20 -7 50 20 46 13 -2 22 -12 24 -26z m-303 -32 c11 -18 -34
-50 -70 -50 -28 0 -35 4 -35 20 0 10 8 24 18 29 22 13 79 14 87 1z m86 -51
c37 -19 47 -89 14 -89 -20 0 -55 49 -55 76 0 26 11 30 41 13z m-171 -114 c10
-12 10 -18 0 -30 -25 -30 -61 -7 -46 30 3 8 12 15 19 15 8 0 20 -7 27 -15z
m-205 -170 c30 -29 33 -65 7 -65 -30 0 -81 67 -65 84 13 12 35 5 58 -19z
m-206 -32 c23 -15 23 -17 6 -30 -34 -24 -105 -12 -105 19 0 10 37 26 60 27 9
1 26 -6 39 -16z m256 -93 c21 -33 -40 -119 -66 -93 -11 11 4 59 28 85 18 20
29 23 38 8z"/>
<path d="M2852 4443 c-84 -41 -110 -151 -59 -249 24 -46 115 -126 201 -175 49
-29 76 -50 76 -62 0 -70 66 -126 133 -113 42 8 87 56 87 91 0 22 -34 65 -50
65 -19 0 -17 -16 5 -36 19 -18 23 -28 16 -45 -12 -34 -28 -34 -34 1 -9 42 -47
59 -82 36 -14 -9 -25 -23 -25 -32 0 -8 -4 -12 -10 -9 -5 3 -10 22 -10 42 0 27
8 43 34 69 29 29 41 34 80 34 77 0 127 -37 165 -120 27 -60 27 -64 -15 -83
-42 -21 -67 -70 -55 -113 10 -38 40 -42 78 -10 l30 26 7 -38 c3 -20 6 -56 6
-79 0 -107 61 -166 203 -197 21 -5 27 -12 27 -32 0 -37 25 -91 48 -103 34 -18
70 -13 77 9 8 24 -10 84 -31 100 -24 21 -16 26 61 39 66 11 80 10 124 -6 47
-16 52 -16 85 -1 74 36 60 85 -27 95 -36 4 -48 1 -73 -21 -27 -22 -112 -51
-122 -41 -2 2 4 17 12 34 21 40 20 58 -4 71 -43 23 -101 -16 -118 -80 -8 -34
-10 -35 -54 -33 -106 3 -184 72 -182 160 1 63 52 129 52 68 0 -61 69 -77 101
-24 15 24 20 27 25 14 26 -69 -35 -134 -85 -89 -25 23 -34 -1 -9 -26 24 -24
48 -25 79 -4 60 42 58 138 -2 174 -42 26 -97 26 -131 -1 -15 -12 -29 -20 -31
-18 -2 2 -6 26 -10 53 -7 46 -6 49 11 41 29 -13 107 -17 123 -6 20 13 6 57
-25 77 -28 19 -65 22 -106 11 -24 -6 -28 -4 -38 27 -13 41 -73 112 -111 131
-65 34 -180 10 -209 -45 -11 -21 -12 -21 -70 12 -32 18 -85 54 -118 80 -127
99 -147 238 -43 307 23 15 23 15 17 -16 -6 -25 -3 -36 13 -52 34 -34 67 -27
91 19 l14 25 6 -25 c14 -54 -32 -116 -81 -108 -22 3 -32 15 -44 52 -4 15 -8
17 -17 8 -17 -17 2 -64 32 -79 14 -7 27 -24 30 -39 5 -28 34 -53 46 -41 4 4
-1 13 -10 20 -25 18 -13 53 23 71 15 8 32 26 39 41 11 25 13 25 41 10 39 -20
100 -20 107 0 20 50 -32 95 -109 95 -28 0 -47 5 -50 13 -7 18 -69 47 -99 47
-12 0 -38 -8 -56 -17z m98 -38 c17 -20 5 -45 -20 -45 -11 0 -23 7 -26 15 -6
15 11 45 26 45 4 0 13 -7 20 -15z m168 -41 c34 -23 29 -54 -8 -54 -32 0 -70
30 -70 55 0 20 49 20 78 -1z m77 -454 c0 -38 -39 -35 -43 3 -3 25 0 28 20 25
17 -2 23 -9 23 -28z m349 -39 c10 -11 15 -25 11 -30 -17 -28 -105 1 -105 35 0
22 73 18 94 -5z m-138 -45 c7 -19 -21 -72 -42 -80 -38 -15 -46 26 -13 68 22
29 47 34 55 12z m182 -123 c3 -22 -28 -40 -48 -28 -12 7 -13 38 -3 49 15 14
48 1 51 -21z m212 -153 c0 -12 -11 -32 -25 -45 -28 -29 -71 -35 -61 -9 3 9 6
19 6 23 0 4 9 17 20 29 27 28 60 29 60 2z m243 -40 c14 -12 -23 -40 -53 -40
-59 0 -83 31 -37 50 23 9 76 4 90 -10z m-308 -105 c25 -24 35 -85 15 -85 -23
0 -60 50 -60 80 0 36 13 38 45 5z"/>
<path d="M2248 4195 c-18 -40 3 -75 45 -75 40 0 57 15 57 50 0 35 -17 50 -57
50 -26 0 -36 -6 -45 -25z m67 -25 c0 -16 -6 -26 -18 -28 -19 -4 -32 20 -23 44
9 25 41 13 41 -16z"/>
<path d="M3022 4208 c-17 -17 -15 -63 2 -77 24 -20 69 -9 85 21 14 24 14 28
-3 47 -21 23 -65 28 -84 9z m63 -38 c0 -18 -6 -26 -21 -28 -26 -4 -40 24 -23
45 18 21 44 11 44 -17z"/>
<path d="M2617 4090 c-20 -6 -54 -18 -75 -29 -20 -11 -211 -194 -424 -408
-427 -428 -432 -434 -431 -548 0 -116 4 -121 436 -552 435 -435 437 -437 557
-437 121 0 129 7 561 441 247 248 393 402 405 428 29 60 26 185 -5 245 -36 69
-771 803 -836 835 -58 28 -134 38 -188 25z m168 -44 c39 -19 136 -110 437
-412 249 -251 392 -401 401 -424 26 -63 30 -115 12 -177 -16 -57 -25 -67 -408
-451 -428 -429 -444 -442 -546 -442 -103 0 -116 11 -545 439 -356 354 -397
398 -412 443 -20 60 -15 136 11 193 26 58 774 803 835 832 63 31 149 30 215
-1z"/>
<path d="M2589 4017 c-20 -8 -49 -23 -65 -35 -57 -41 -732 -728 -749 -762 -10
-19 -20 -65 -23 -102 -8 -117 -3 -123 420 -544 408 -405 394 -394 514 -394
107 1 116 8 511 403 402 402 407 409 407 527 0 48 -6 77 -23 110 -31 61 -730
759 -786 785 -50 24 -158 30 -206 12z m186 -31 c39 -19 131 -105 416 -392 393
-397 389 -392 389 -495 0 -68 -38 -135 -124 -219 -42 -41 -76 -71 -76 -68 0 4
7 33 15 65 8 31 15 74 15 96 0 57 24 97 59 97 37 0 59 -24 41 -45 -21 -25 -43
-19 -36 10 8 31 -19 35 -29 5 -9 -28 11 -50 46 -50 45 0 65 56 32 92 -34 38
-111 13 -128 -43 -7 -20 -9 -19 -46 17 -32 32 -46 38 -92 42 -63 5 -90 -7
-117 -51 -31 -50 -26 -93 14 -133 28 -28 42 -34 75 -34 53 0 83 28 79 72 -2
17 -9 34 -17 36 -10 3 -12 -2 -7 -22 7 -28 -21 -66 -49 -66 -25 0 -72 27 -79
45 -27 71 25 142 96 132 112 -15 155 -133 96 -259 -26 -56 -48 -75 -48 -43 0
21 -45 65 -65 65 -22 0 -48 -65 -40 -101 4 -15 15 -39 25 -52 l19 -23 -212
-211 c-117 -116 -228 -219 -247 -229 -48 -24 -153 -24 -200 0 -19 10 -130 113
-247 229 l-212 211 25 29 c37 44 27 147 -16 147 -22 0 -59 -41 -68 -75 -8 -27
-9 -26 -39 32 -43 79 -50 131 -29 188 30 76 103 113 163 81 79 -40 59 -156
-27 -156 -45 0 -63 18 -54 54 5 20 2 26 -9 26 -44 0 -24 -92 24 -109 86 -30
174 64 139 149 -37 89 -166 100 -234 19 l-24 -29 -21 35 c-32 54 -89 60 -124
13 -19 -26 -19 -28 -3 -53 14 -21 24 -26 49 -23 27 2 33 8 35 31 2 18 -2 29
-13 33 -22 9 -30 -2 -16 -20 17 -21 -7 -33 -26 -13 -23 23 -9 47 26 47 43 0
62 -35 72 -128 4 -42 11 -88 15 -102 10 -36 -141 112 -168 165 -29 55 -29 146
0 200 12 23 177 196 389 408 284 283 378 371 409 382 59 21 122 18 179 -9z
m-635 -1207 c10 -37 -3 -74 -25 -74 -15 0 -21 8 -23 32 -6 61 34 97 48 42z
m1124 9 c19 -26 20 -51 5 -79 -10 -20 -11 -20 -30 -3 -19 17 -25 57 -13 88 8
22 20 20 38 -6z"/>
<path d="M2581 3711 c-31 -11 -69 -34 -90 -55 l-36 -36 0 -148 c0 -200 1 -201
171 -304 71 -44 160 -95 197 -115 80 -42 131 -97 146 -158 6 -24 11 -86 11
-137 0 -109 -26 -180 -79 -218 -18 -12 -30 -25 -27 -28 12 -12 113 70 137 110
22 39 24 54 24 158 -1 106 -3 121 -28 172 -25 51 -42 67 -197 183 -93 70 -183
142 -199 161 -38 43 -46 81 -46 232 0 123 0 124 28 148 38 33 96 33 134 0 l28
-24 3 -151 3 -151 25 0 24 0 0 130 c0 100 -4 138 -16 161 -21 41 -13 45 25 13
52 -44 61 -71 61 -194 l0 -110 60 0 60 0 0 93 c0 68 -5 103 -19 133 -55 121
-249 187 -400 135z"/>
<path d="M2422 3670 c-23 -16 -54 -49 -69 -72 -27 -40 -28 -47 -28 -168 0
-185 2 -188 235 -365 231 -175 230 -173 230 -357 0 -74 -5 -138 -11 -152 -24
-52 -121 -58 -159 -9 -18 23 -20 41 -20 169 l0 144 -31 0 -31 0 4 -132 c3
-103 8 -140 21 -166 18 -32 18 -33 0 -24 -35 20 -75 70 -84 108 -4 22 -9 78
-9 127 l0 87 -55 0 -55 0 0 -95 c0 -109 11 -145 61 -193 135 -132 416 -117
475 25 17 39 19 230 4 285 -6 21 -22 51 -37 68 -22 26 -154 110 -356 224 -104
59 -126 107 -127 269 0 134 12 170 75 225 45 41 21 42 -33 2z"/>
<path d="M1425 3417 c-31 -48 23 -105 73 -78 46 24 28 94 -25 99 -25 2 -35 -2
-48 -21z m65 -12 c17 -20 5 -45 -20 -45 -11 0 -23 7 -26 15 -6 15 11 45 26 45
4 0 13 -7 20 -15z"/>
<path d="M3845 3420 c-41 -46 29 -116 75 -75 24 22 26 58 4 79 -21 22 -57 20
-79 -4z m68 -24 c8 -20 -8 -38 -29 -34 -22 4 -31 37 -13 48 15 10 36 3 42 -14z"/>
<path d="M1552 3224 c-24 -17 -30 -62 -10 -82 20 -20 65 -14 82 10 21 30 20
43 -6 68 -26 24 -37 25 -66 4z m56 -40 c4 -26 -26 -40 -45 -21 -8 7 -11 21 -7
31 9 24 48 17 52 -10z"/>
<path d="M3742 3224 c-24 -16 -28 -44 -12 -75 21 -39 100 -12 100 34 0 20 -34
57 -53 57 -7 0 -23 -7 -35 -16z m56 -42 c4 -29 -26 -42 -44 -18 -17 24 -6 48
20 44 13 -2 22 -12 24 -26z"/>
<path d="M1552 3074 c-51 -35 -8 -117 50 -95 42 16 50 59 18 91 -24 24 -38 25
-68 4z m56 -42 c4 -28 -24 -40 -45 -19 -14 13 -14 19 -3 32 18 22 44 15 48
-13z"/>
<path d="M3742 3074 c-42 -29 -19 -96 33 -96 51 0 72 55 35 92 -24 24 -38 25
-68 4z m53 -44 c0 -29 -32 -41 -41 -16 -9 24 4 48 23 44 12 -2 18 -12 18 -28z"/>
<path d="M1570 2874 c0 -20 10 -52 21 -71 12 -19 20 -35 18 -37 -2 -1 -39 -8
-81 -15 -66 -10 -81 -10 -107 3 -44 23 -77 20 -113 -12 -39 -36 -33 -57 21
-73 46 -14 84 -6 111 21 19 19 99 44 109 34 2 -2 -1 -15 -7 -29 -7 -14 -12
-37 -12 -50 0 -22 4 -25 39 -25 48 0 87 34 96 84 7 32 10 36 39 36 56 0 108
-21 149 -59 35 -33 41 -44 45 -93 4 -48 1 -58 -22 -84 l-25 -29 -1 32 c0 67
-90 82 -106 18 -9 -36 -24 -21 -24 25 0 30 6 43 26 59 27 21 35 20 67 -7 15
-14 17 -13 17 7 0 13 -9 26 -24 32 -60 28 -121 -31 -112 -106 10 -82 99 -121
174 -75 18 11 35 20 37 20 3 0 5 -21 5 -46 0 -38 -3 -45 -16 -40 -40 15 -66
17 -99 6 -30 -10 -35 -15 -29 -33 17 -57 82 -89 137 -68 25 10 28 8 48 -32 52
-103 100 -137 193 -137 51 0 59 3 97 40 l42 40 63 -35 c77 -43 176 -133 198
-179 32 -68 15 -165 -36 -200 -32 -22 -34 -21 -30 23 3 32 0 41 -18 51 -31 16
-67 5 -84 -28 l-14 -27 -7 28 c-10 38 11 83 45 97 42 17 64 9 75 -28 10 -35
20 -41 29 -16 8 21 -20 65 -44 71 -12 3 -20 16 -22 36 -2 16 -11 35 -20 41
-21 13 -36 0 -20 -16 21 -21 13 -45 -22 -72 -19 -14 -37 -35 -41 -46 -6 -19
-8 -19 -35 -5 -37 19 -109 20 -116 1 -7 -19 21 -73 45 -86 11 -5 40 -10 64
-10 28 0 49 -6 58 -16 38 -46 108 -56 159 -21 52 35 73 70 78 131 8 103 -63
194 -227 291 -75 44 -81 49 -81 80 0 25 -8 40 -37 65 -32 29 -41 32 -82 27
-56 -6 -91 -42 -91 -92 0 -26 6 -39 26 -51 17 -11 28 -14 35 -7 7 7 2 16 -15
27 -31 20 -33 36 -6 67 l19 24 1 -32 c0 -62 75 -80 104 -24 l14 26 7 -28 c22
-87 -82 -154 -179 -113 -63 26 -145 161 -106 174 33 11 80 70 80 100 0 67 -27
80 -78 37 -16 -13 -32 -22 -36 -18 -3 3 -6 38 -6 77 -1 140 -59 207 -202 231
-35 5 -38 8 -38 40 0 66 -35 105 -95 105 -22 0 -25 -4 -25 -36z m69 -1 c11
-10 24 -33 27 -51 6 -31 5 -34 -17 -30 -38 5 -76 98 -40 98 5 0 18 -8 30 -17z
m-228 -144 c32 -17 5 -39 -47 -39 -47 0 -63 13 -44 35 15 18 63 20 91 4z m229
-19 c0 -27 -46 -72 -68 -68 -22 5 -17 36 11 66 26 28 57 29 57 2z m180 -185
c10 -12 10 -18 0 -30 -25 -30 -61 -7 -46 30 3 8 12 15 19 15 8 0 20 -7 27 -15z
m204 -71 c12 -30 -29 -84 -65 -84 -17 0 -9 47 12 74 23 29 44 34 53 10z m-133
-94 c21 -17 22 -21 9 -30 -26 -17 -66 -11 -88 13 -12 13 -19 27 -15 30 14 14
72 6 94 -13z m317 -58 c4 -28 -24 -40 -45 -19 -14 13 -14 19 -3 32 18 22 44
15 48 -13z m87 -427 c33 -32 31 -45 -4 -45 -32 0 -81 34 -81 56 0 24 58 17 85
-11z m165 -50 c0 -21 -34 -37 -48 -23 -26 26 -2 64 30 47 10 -5 18 -16 18 -24z"/>
<path d="M3696 2887 c-14 -14 -27 -42 -31 -68 -8 -49 -18 -59 -56 -59 -14 0
-49 -12 -77 -26 -69 -34 -102 -88 -102 -166 0 -31 -3 -69 -6 -87 l-6 -31 -31
26 c-38 32 -68 28 -78 -10 -12 -42 11 -87 55 -111 43 -23 43 -41 -2 -115 -55
-92 -175 -117 -234 -51 -29 32 -39 93 -18 106 6 3 10 -1 10 -9 0 -16 37 -46
57 -46 22 0 53 39 53 66 0 21 3 24 14 15 26 -22 26 -52 0 -76 -32 -30 -15 -41
20 -14 58 46 6 139 -79 139 -59 0 -115 -57 -115 -117 0 -12 -20 -28 -56 -47
-123 -64 -222 -163 -244 -242 -26 -92 35 -196 123 -211 37 -6 105 20 114 44 3
8 22 13 53 13 61 0 110 36 110 81 0 27 -2 29 -42 29 -24 0 -56 -7 -71 -15 -26
-14 -28 -13 -39 11 -7 14 -24 32 -39 40 -36 18 -48 53 -23 71 22 16 10 31 -14
17 -9 -6 -18 -25 -20 -43 -2 -23 -8 -31 -22 -31 -23 0 -53 -42 -48 -66 4 -24
22 -23 26 1 10 50 54 60 97 22 20 -17 27 -32 27 -61 0 -47 -9 -56 -21 -24 -16
42 -59 50 -92 17 -16 -16 -19 -27 -13 -52 6 -31 6 -31 -17 -16 -46 31 -64 67
-64 128 0 48 5 65 29 100 35 51 120 119 198 161 55 30 57 30 67 11 18 -33 75
-61 124 -61 86 0 139 37 184 125 14 28 26 51 27 52 1 1 20 -3 43 -8 32 -9 47
-8 70 4 32 17 58 58 50 80 -9 23 -71 30 -112 13 l-36 -15 7 47 c3 26 8 49 10
51 2 2 15 -6 30 -18 80 -63 208 24 173 117 -25 64 -72 88 -117 56 -25 -17 -29
-34 -7 -34 8 0 15 4 15 9 0 5 9 11 21 14 45 12 88 -68 60 -112 -7 -11 -10 -9
-16 8 -10 33 -49 55 -74 41 -26 -13 -43 -44 -35 -64 8 -22 -2 -20 -25 5 -30
32 -35 82 -13 132 24 54 65 85 135 99 65 14 87 7 87 -27 0 -16 12 -39 30 -56
24 -25 37 -30 67 -27 45 4 52 22 29 70 -9 17 -15 33 -13 34 9 9 95 -21 119
-41 36 -31 81 -32 126 -5 28 17 31 23 22 40 -26 49 -86 63 -142 34 -27 -14
-40 -15 -81 -5 -27 6 -62 11 -78 11 -35 0 -35 2 -8 40 12 16 22 45 23 67 1 36
-1 38 -31 41 -24 2 -39 -3 -57 -21z m64 -17 c0 -35 -29 -80 -50 -80 -28 0 -27
47 2 77 27 28 48 30 48 3z m275 -146 c21 -22 5 -34 -46 -34 -42 0 -72 25 -48
41 23 14 76 10 94 -7z m-260 -19 c30 -29 33 -65 7 -65 -22 0 -57 36 -67 68 -5
18 -2 22 15 22 11 0 32 -11 45 -25z m-190 -195 c0 -18 -6 -26 -23 -28 -13 -2
-25 3 -28 12 -10 26 4 48 28 44 17 -2 23 -10 23 -28z m-201 -71 c30 -35 33
-57 9 -66 -21 -8 -63 40 -63 73 0 33 23 31 54 -7z m176 -71 c0 -37 -64 -61
-100 -38 -13 9 -12 13 9 30 25 22 91 28 91 8z m-365 -68 c0 -29 -32 -41 -41
-16 -9 24 4 48 23 44 12 -2 18 -12 18 -28z m-50 -410 c3 -5 -5 -21 -19 -35
-40 -40 -107 -31 -78 11 19 29 84 45 97 24z m-185 -65 c0 -21 -34 -37 -48 -23
-26 26 -2 64 30 47 10 -5 18 -16 18 -24z"/>
<path d="M1436 2867 c-21 -16 -24 -60 -6 -82 7 -8 25 -15 40 -15 33 0 53 21
53 57 0 28 -25 53 -53 53 -9 0 -24 -6 -34 -13z m61 -33 c3 -8 -2 -23 -11 -32
-15 -15 -17 -15 -32 0 -21 21 -11 48 16 48 11 0 23 -7 27 -16z"/>
<path d="M3847 2862 c-22 -24 -21 -55 1 -75 37 -33 92 -11 92 37 0 48 -62 73
-93 38z m67 -27 c3 -8 -2 -21 -10 -29 -20 -20 -44 -9 -44 20 0 19 5 24 24 24
13 0 26 -7 30 -15z"/>
<path d="M2262 2084 c-43 -30 -21 -94 31 -94 40 0 57 15 57 51 0 27 -30 59
-55 59 -6 0 -21 -7 -33 -16z m56 -41 c-3 -31 -34 -44 -44 -19 -9 24 3 46 26
46 17 0 21 -5 18 -27z"/>
<path d="M3027 2082 c-20 -22 -22 -63 -5 -80 20 -20 65 -14 82 10 21 30 20 44
-4 68 -25 25 -52 26 -73 2z m58 -42 c0 -33 -40 -41 -50 -11 -9 28 2 43 28 39
16 -2 22 -10 22 -28z"/>
<path d="M1568 1414 c-15 -8 -54 -17 -88 -21 -33 -3 -60 -10 -60 -14 0 -5 8
-9 19 -9 10 0 23 -6 29 -12 11 -15 16 -417 4 -434 -4 -7 -15 -13 -25 -15 -10
-2 -18 -8 -18 -14 1 -6 43 -10 106 -10 63 0 105 4 106 10 0 6 -10 12 -23 15
l-23 6 0 257 c0 141 0 257 0 257 0 -1 -12 -7 -27 -16z"/>
<path d="M1905 1411 c-6 -5 -37 -13 -70 -18 l-60 -8 36 -21 c26 -16 51 -49 95
-125 32 -57 60 -107 62 -111 7 -14 -169 -217 -191 -220 -12 -2 -21 -7 -20 -13
2 -5 42 -11 89 -13 l86 -3 -22 31 c-19 27 -21 35 -11 57 14 31 80 113 92 113
6 0 79 -121 97 -161 2 -4 -7 -9 -19 -12 -47 -12 -4 -25 90 -26 102 -1 136 11
84 29 -22 8 -43 37 -97 132 -79 141 -83 113 37 261 43 54 76 101 73 104 -3 3
-29 -1 -57 -10 -28 -10 -60 -17 -70 -17 -20 0 -26 -15 -9 -25 19 -12 10 -57
-22 -101 -17 -24 -36 -43 -42 -41 -13 4 -115 176 -116 195 0 14 -22 16 -35 3z"/>
<path d="M3070 1388 c-14 -18 -24 -37 -22 -43 4 -23 -67 -190 -83 -193 -12 -3
-13 -7 -6 -16 8 -10 1 -41 -25 -115 -33 -90 -40 -102 -65 -109 -46 -11 -34
-27 22 -30 68 -4 83 2 68 26 -9 15 -7 32 10 85 23 67 35 85 45 68 3 -5 25 -6
48 -4 52 6 88 -18 118 -78 26 -49 25 -69 -1 -69 -12 0 -19 -5 -16 -12 4 -14
205 -20 213 -6 2 4 -7 13 -22 20 -28 14 -33 24 -144 330 -61 167 -67 178 -91
178 -17 0 -33 -11 -49 -32z m47 -240 l6 -33 -26 18 c-14 9 -33 17 -41 17 -26
0 -27 17 -5 67 l22 48 18 -42 c11 -23 22 -57 26 -75z"/>
<path d="M1015 1386 c-16 -7 -41 -26 -55 -41 -21 -22 -25 -37 -25 -85 0 -52 4
-63 30 -90 17 -17 58 -47 93 -67 68 -38 122 -86 122 -109 0 -23 -38 -54 -68
-54 -15 0 -46 13 -68 30 -22 16 -52 34 -67 39 -24 9 -26 8 -32 -21 -4 -17 -16
-45 -26 -62 -26 -42 -24 -47 11 -34 17 5 49 8 73 5 151 -20 153 -20 200 1 57
25 87 70 87 129 0 54 -42 104 -138 164 -86 53 -112 77 -112 104 0 55 48 58
135 10 l62 -35 29 57 c16 32 30 61 32 64 2 4 -18 2 -43 -3 -32 -7 -60 -7 -90
1 -58 14 -113 13 -150 -3z"/>
<path d="M2367 1370 c7 -14 13 -35 13 -47 0 -29 7 -29 82 3 35 15 64 22 70 16
4 -4 7 -102 6 -217 l-3 -209 -23 -6 c-13 -3 -23 -9 -23 -15 1 -16 213 -13 219
3 2 7 -6 12 -21 12 -14 0 -28 7 -31 16 -9 22 -6 398 3 413 6 9 23 6 71 -13 75
-31 80 -31 80 -8 0 9 7 30 15 46 8 15 15 29 15 30 0 0 -109 1 -243 1 l-243 0
13 -25z"/>
<path d="M3604 1381 c-145 -66 -193 -306 -86 -432 58 -68 132 -86 223 -54 32
12 50 13 69 6 38 -15 122 -18 127 -4 2 6 -6 13 -19 15 -23 3 -23 5 -23 126 0
67 -1 122 -1 122 -1 0 -18 -7 -37 -15 -20 -8 -59 -15 -87 -15 -54 0 -66 -14
-25 -30 23 -9 25 -14 25 -74 0 -57 -3 -65 -25 -80 -41 -27 -80 -21 -108 17
-74 97 -75 288 -2 357 33 31 68 28 120 -9 55 -39 68 -39 83 3 7 18 21 41 32
51 11 10 20 21 20 24 0 3 -55 7 -123 8 -101 2 -129 -1 -163 -16z"/>
<path d="M4030 1380 c0 -5 9 -10 20 -10 34 0 42 -34 36 -158 -3 -65 -5 -156
-6 -205 0 -85 -1 -88 -26 -98 -15 -5 -24 -12 -20 -16 3 -4 86 -8 184 -10 131
-2 183 1 194 10 14 10 48 96 48 119 0 23 -31 3 -47 -29 -22 -45 -71 -65 -148
-61 l-50 3 -3 93 -3 92 28 11 c15 6 43 9 61 7 26 -3 36 0 44 16 6 12 22 33 36
49 l26 27 -60 0 c-41 0 -69 -6 -92 -20 -18 -11 -35 -20 -37 -20 -3 0 -5 38 -5
85 0 81 1 85 23 85 12 0 51 -14 85 -30 72 -34 92 -37 92 -14 0 9 9 32 21 50
l21 34 -211 0 c-134 0 -211 -4 -211 -10z"/>
<path d="M1848 545 c-3 -85 -1 -95 15 -95 12 0 17 8 17 33 1 17 2 60 3 95 2
52 -1 62 -15 62 -14 0 -17 -14 -20 -95z"/>
<path d="M2560 633 c0 -15 53 -168 60 -177 5 -4 14 2 20 14 7 14 8 25 3 29 -6
3 -20 36 -32 74 -14 41 -28 67 -37 67 -8 0 -14 -3 -14 -7z"/>
<path d="M2683 624 c-3 -8 -1 -20 6 -27 8 -8 11 -8 11 0 0 6 3 18 6 27 3 9 1
16 -5 16 -7 0 -14 -7 -18 -16z"/>
<path d="M2745 631 c-8 -15 3 -31 21 -31 9 0 14 7 12 17 -4 20 -24 28 -33 14z"/>
<path d="M1940 604 c8 -21 6 -29 -14 -49 -21 -21 -22 -24 -5 -28 10 -3 22 -19
26 -38 12 -43 33 -50 33 -10 0 18 -9 38 -22 50 -18 18 -19 21 -5 26 8 4 18 13
21 21 8 20 -11 54 -29 54 -11 0 -12 -5 -5 -26z"/>
<path d="M3027 613 c-9 -8 -9 -126 -1 -147 3 -9 12 -16 19 -16 9 0 11 13 7 47
-4 38 -1 49 14 60 18 13 18 15 2 24 -10 6 -18 17 -18 24 0 16 -12 20 -23 8z"/>
<path d="M3368 593 c7 -3 16 -2 19 1 4 3 -2 6 -13 5 -11 0 -14 -3 -6 -6z"/>
<path d="M2044 572 c-47 -31 -29 -122 24 -122 11 0 10 3 -2 16 -19 18 -21 85
-4 102 13 13 0 16 -18 4z"/>
<path d="M2094 564 c19 -18 21 -85 4 -102 -13 -13 0 -16 18 -4 46 30 32 122
-18 122 -18 0 -18 -1 -4 -16z"/>
<path d="M2187 573 c-4 -3 -7 -49 -7 -102 0 -86 1 -94 16 -80 13 14 21 107 15
177 -1 13 -14 16 -24 5z"/>
<path d="M2258 560 c29 -27 29 -74 0 -94 l-22 -16 21 0 c26 0 53 35 53 68 0
38 -18 62 -47 62 l-27 0 22 -20z"/>
<path d="M2340 570 c0 -5 6 -10 14 -10 8 0 18 5 21 10 3 6 -3 10 -14 10 -12 0
-21 -4 -21 -10z"/>
<path d="M2411 559 c6 -12 9 -39 7 -60 -2 -26 1 -40 10 -44 22 -8 22 -7 22 41
0 52 -14 84 -36 84 -12 0 -13 -4 -3 -21z"/>
<path d="M2752 518 c2 -46 7 -64 18 -66 12 -2 14 9 12 63 -3 49 -7 65 -18 65
-12 0 -14 -13 -12 -62z"/>
<path d="M2839 578 c0 -2 -1 -31 -2 -66 -2 -49 1 -62 13 -62 12 0 15 12 14 53
-1 69 -2 77 -14 77 -5 0 -10 -1 -11 -2z"/>
<path d="M2915 560 c10 -12 21 -39 24 -62 9 -60 31 -62 31 -3 0 60 -14 85 -47
85 -26 0 -26 0 -8 -20z"/>
<path d="M3120 570 c0 -13 11 -13 30 0 12 8 11 10 -7 10 -13 0 -23 -4 -23 -10z"/>
<path d="M3187 528 c6 -67 9 -78 26 -78 11 0 13 12 9 53 -4 49 -16 77 -32 77
-4 0 -5 -24 -3 -52z"/>
<path d="M3274 555 c-14 -21 -14 -30 -4 -56 11 -27 17 -30 49 -27 45 4 64 36
49 79 -8 24 -16 29 -44 29 -25 0 -38 -6 -50 -25z m67 -11 c12 -34 2 -66 -19
-62 -20 4 -38 49 -29 72 10 25 36 19 48 -10z"/>
<path d="M3436 564 c-25 -25 -30 -61 -12 -89 9 -14 24 -25 32 -25 15 0 15 2 0
25 -20 31 -20 54 0 83 17 25 3 30 -20 6z"/>
<path d="M3490 565 c7 -8 10 -24 7 -35 -6 -23 3 -26 21 -8 17 17 15 45 -4 52
-27 11 -37 7 -24 -9z"/>
<path d="M2346 511 c-25 -28 -13 -61 22 -61 24 1 25 2 9 11 -14 8 -17 18 -12
40 8 34 4 36 -19 10z"/>
<path d="M3126 511 c-24 -26 -17 -55 14 -59 21 -3 22 -2 11 12 -8 9 -11 26 -7
41 8 30 5 31 -18 6z"/>
<path d="M3499 463 c-13 -15 -12 -15 9 -4 23 12 28 21 13 21 -5 0 -15 -7 -22
-17z"/>
<path d="M3291 444 c6 -7 20 -16 31 -20 13 -4 18 -12 15 -25 -6 -22 15 -26 31
-6 16 19 2 34 -46 50 -34 12 -41 12 -31 1z"/>
<path d="M3274 395 c11 -8 27 -15 35 -15 11 0 10 4 -5 15 -10 8 -26 14 -34 14
-11 0 -10 -3 4 -14z"/>
</g>
</svg>
