<svg width="27" height="26" viewBox="0 0 27 26" fill="none" xmlns="http://www.w3.org/2000/svg">
<path d="M19.3147 9.6766C19.3147 15.0208 14.991 19.3532 9.65735 19.3532C4.32374 19.3532 0 15.0208 0 9.6766C0 4.33236 4.32374 0 9.65735 0C14.991 0 19.3147 4.33236 19.3147 9.6766Z" fill="#D9D9D9"/>
<path fill-rule="evenodd" clip-rule="evenodd" d="M9.65735 17.3532C13.8826 17.3532 17.3147 13.92 17.3147 9.6766C17.3147 5.43317 13.8826 2 9.65735 2C5.43206 2 2 5.43317 2 9.6766C2 13.92 5.43206 17.3532 9.65735 17.3532ZM9.65735 19.3532C14.991 19.3532 19.3147 15.0208 19.3147 9.6766C19.3147 4.33236 14.991 0 9.65735 0C4.32374 0 0 4.33236 0 9.6766C0 15.0208 4.32374 19.3532 9.65735 19.3532Z" fill="black"/>
<path fill-rule="evenodd" clip-rule="evenodd" d="M25.0004 26L16.2047 16.577L17.6641 15.2094L26.4597 24.6323L25.0004 26Z" fill="black"/>
</svg>
