<svg width="42" height="40" viewBox="0 0 42 40" fill="none" xmlns="http://www.w3.org/2000/svg">
<path d="M39.3053 9.99999C37.9578 10.5833 36.5053 10.9667 35.0003 11.15C36.5403 10.2667 37.7303 8.86666 38.2903 7.18332C36.8378 8.01666 35.2278 8.59999 33.5303 8.93332C32.1478 7.49999 30.2053 6.66666 28.0003 6.66666C23.8878 6.66666 20.5278 9.86666 20.5278 13.8167C20.5278 14.3833 20.5978 14.9333 20.7203 15.45C14.4903 15.15 8.94281 12.3 5.25031 7.98332C4.60281 9.03332 4.23531 10.2667 4.23531 11.5667C4.23531 14.05 5.54781 16.25 7.57781 17.5C6.33531 17.5 5.18031 17.1667 4.16531 16.6667V16.7167C4.16531 20.1833 6.75531 23.0833 10.1853 23.7333C9.08408 24.0203 7.92798 24.0603 6.80781 23.85C7.28312 25.2708 8.214 26.514 9.46959 27.4049C10.7252 28.2957 12.2423 28.7895 13.8078 28.8167C11.1542 30.8174 7.86481 31.8988 4.48031 31.8833C3.88531 31.8833 3.29031 31.85 2.69531 31.7833C6.02031 33.8167 9.97531 35 14.2103 35C28.0003 35 35.5778 24.1 35.5778 14.65C35.5778 14.3333 35.5778 14.0333 35.5603 13.7167C37.0303 12.7167 38.2903 11.45 39.3053 9.99999Z" fill="black"/>
</svg>
