<svg width="48" height="45" viewBox="0 0 48 45" fill="none" xmlns="http://www.w3.org/2000/svg">
<path d="M15.6 3.75H32.4C38.8 3.75 44 8.625 44 14.625V30.375C44 33.2592 42.7779 36.0253 40.6024 38.0648C38.427 40.1042 35.4765 41.25 32.4 41.25H15.6C9.2 41.25 4 36.375 4 30.375V14.625C4 11.7408 5.22214 8.97467 7.39756 6.93521C9.57298 4.89576 12.5235 3.75 15.6 3.75ZM15.2 7.5C13.2904 7.5 11.4591 8.21116 10.1088 9.47703C8.75857 10.7429 8 12.4598 8 14.25V30.75C8 34.4812 11.22 37.5 15.2 37.5H32.8C34.7096 37.5 36.5409 36.7888 37.8912 35.523C39.2414 34.2571 40 32.5402 40 30.75V14.25C40 10.5187 36.78 7.5 32.8 7.5H15.2ZM34.5 10.3125C35.163 10.3125 35.7989 10.5594 36.2678 10.999C36.7366 11.4385 37 12.0346 37 12.6562C37 13.2779 36.7366 13.874 36.2678 14.3135C35.7989 14.7531 35.163 15 34.5 15C33.837 15 33.2011 14.7531 32.7322 14.3135C32.2634 13.874 32 13.2779 32 12.6562C32 12.0346 32.2634 11.4385 32.7322 10.999C33.2011 10.5594 33.837 10.3125 34.5 10.3125ZM24 13.125C26.6522 13.125 29.1957 14.1127 31.0711 15.8709C32.9464 17.629 34 20.0136 34 22.5C34 24.9864 32.9464 27.371 31.0711 29.1291C29.1957 30.8873 26.6522 31.875 24 31.875C21.3478 31.875 18.8043 30.8873 16.9289 29.1291C15.0536 27.371 14 24.9864 14 22.5C14 20.0136 15.0536 17.629 16.9289 15.8709C18.8043 14.1127 21.3478 13.125 24 13.125ZM24 16.875C22.4087 16.875 20.8826 17.4676 19.7574 18.5225C18.6321 19.5774 18 21.0082 18 22.5C18 23.9918 18.6321 25.4226 19.7574 26.4775C20.8826 27.5324 22.4087 28.125 24 28.125C25.5913 28.125 27.1174 27.5324 28.2426 26.4775C29.3679 25.4226 30 23.9918 30 22.5C30 21.0082 29.3679 19.5774 28.2426 18.5225C27.1174 17.4676 25.5913 16.875 24 16.875Z" fill="black"/>
</svg>
