<svg width="280" height="60" viewBox="0 0 197 34" fill="none" xmlns="http://www.w3.org/2000/svg">
<path d="M10 33.6C8.26667 33.6 6.73333 33.4333 5.4 33.1C4.1 32.8 3.08333 32.5 2.35 32.2C1.61667 31.8667 1.25 31.7 1.25 31.7L0.85 31C0.85 31 0.883333 30.7667 0.95 30.3C1.05 29.8 1.13333 29.15 1.2 28.35C1.3 27.5167 1.4 26.6 1.5 25.6C1.6 24.5667 1.65 23.5333 1.65 22.5L5.75 22.2C5.75 24.0333 5.91667 25.4667 6.25 26.5C6.58333 27.5333 7.15 28.25 7.95 28.65C8.78333 29.05 9.9 29.25 11.3 29.25C12.9 29.25 14.1833 28.9 15.15 28.2C16.1167 27.5 16.6 26.5333 16.6 25.3C16.6 24.3667 16.2333 23.5667 15.5 22.9C14.8 22.2333 13.8833 21.6167 12.75 21.05C11.65 20.45 10.4667 19.85 9.2 19.25C7.9 18.6167 6.63333 17.9 5.4 17.1C4.2 16.3 3.2 15.35 2.4 14.25C1.63333 13.15 1.25 11.8167 1.25 10.25C1.25 8.31667 1.81667 6.6 2.95 5.1C4.11667 3.6 5.68333 2.43333 7.65 1.6C9.65 0.733332 11.95 0.299998 14.55 0.299998C16.1833 0.299998 17.6333 0.416665 18.9 0.649999C20.2 0.849999 21.2167 1.06667 21.95 1.3C22.6833 1.53333 23.05 1.65 23.05 1.65L23.4 2.3C23.4 2.3 23.3167 2.7 23.15 3.5C22.9833 4.26667 22.8 5.31667 22.6 6.65C22.4333 7.95 22.3 9.35 22.2 10.85L18.5 11.15L18.05 10.85C18.05 10.85 18.0667 10.6667 18.1 10.3C18.1333 9.93333 18.15 9.51667 18.15 9.05C18.15 7.55 17.7667 6.48333 17 5.85C16.2667 5.21666 15.0167 4.9 13.25 4.9C11.8167 4.9 10.6333 5.25 9.7 5.95C8.8 6.65 8.35 7.51666 8.35 8.55C8.35 9.41667 8.65 10.1833 9.25 10.85C9.88333 11.4833 10.7 12.0667 11.7 12.6C12.7 13.1333 13.7667 13.6833 14.9 14.25C16.3333 14.9167 17.7333 15.65 19.1 16.45C20.4667 17.25 21.6 18.2167 22.5 19.35C23.4 20.45 23.85 21.85 23.85 23.55C23.85 25.55 23.2667 27.3167 22.1 28.85C20.9667 30.35 19.3667 31.5167 17.3 32.35C15.2333 33.1833 12.8 33.6 10 33.6ZM27.8531 33.45L28.1531 30.25C29.6531 29.95 30.6365 29.5333 31.1031 29C31.6031 28.4333 31.8531 27.45 31.8531 26.05V6.7C31.8531 5.66666 31.7365 4.98333 31.5031 4.65C31.2698 4.28333 30.7865 4.1 30.0531 4.1C29.8531 4.1 29.5698 4.11667 29.2031 4.15C28.8698 4.15 28.5698 4.15 28.3031 4.15L28.0531 3.75L28.4531 0.85C29.5198 0.85 30.6698 0.866666 31.9031 0.899999C33.1698 0.899999 34.3198 0.899999 35.3531 0.899999C35.9865 0.899999 36.9198 0.866665 38.1531 0.799997C39.4198 0.733332 40.8198 0.649998 42.3531 0.549998L42.1031 3.85C40.8365 4.01667 39.9865 4.28333 39.5531 4.65C39.1531 4.98333 38.9198 5.61666 38.8531 6.55C38.7531 8.15 38.6698 9.85 38.6031 11.65C38.5365 13.4167 38.4698 15.2 38.4031 17C38.3365 18.8 38.2865 20.5167 38.2531 22.15C38.2198 23.75 38.2031 25.1667 38.2031 26.4C38.2031 27.7667 38.3365 28.6833 38.6031 29.15C38.8698 29.6167 39.3865 29.85 40.1531 29.85C40.5198 29.85 40.9031 29.8333 41.3031 29.8C41.7031 29.7667 42.0531 29.7333 42.3531 29.7L42.5531 30L42.1031 33.15C41.3698 33.1167 40.5365 33.0833 39.6031 33.05C38.6698 33.05 37.7531 33.0333 36.8531 33C35.9865 33 35.2865 33 34.7531 33C33.9865 33 32.9531 33.0333 31.6531 33.1C30.3865 33.2 29.1198 33.3167 27.8531 33.45ZM62.1148 33.35L61.8648 33L62.1148 30C63.0815 29.9667 63.7815 29.85 64.2148 29.65C64.6815 29.4167 64.9148 29.0667 64.9148 28.6C64.9148 28.3333 64.8482 28.0667 64.7148 27.8C64.5815 27.5 64.3815 27.1667 64.1148 26.8L59.7648 20.3L56.3648 25.05C55.7315 25.95 55.2815 26.65 55.0148 27.15C54.7482 27.65 54.6148 28.0667 54.6148 28.4C54.6148 29.3333 55.4315 29.8333 57.0648 29.9L57.2648 30.3L56.9648 33.3C56.9648 33.3 56.7148 33.2833 56.2148 33.25C55.7148 33.2167 55.0982 33.1667 54.3648 33.1C53.6648 33.0667 52.9482 33.0333 52.2148 33C51.5148 32.9667 50.9482 32.95 50.5148 32.95C50.0148 32.95 49.4315 32.9667 48.7648 33C48.1315 33.0333 47.5148 33.0667 46.9148 33.1C46.3148 33.1333 45.7982 33.15 45.3648 33.15C44.9648 33.1833 44.7648 33.2 44.7648 33.2L44.5648 32.7L44.9148 29.75C45.6815 29.4833 46.4648 29.0333 47.2648 28.4C48.0648 27.7667 48.8815 26.9833 49.7148 26.05C50.5482 25.1167 51.3648 24.1167 52.1648 23.05L57.1648 16.45L51.7648 8.35C51.1315 7.41667 50.4982 6.68333 49.8648 6.15C49.2315 5.58333 48.5482 5.16667 47.8148 4.9C47.0815 4.6 46.2482 4.36666 45.3148 4.2L45.1148 3.95L45.5148 0.799997C45.5148 0.799997 45.7482 0.816665 46.2148 0.85C46.6815 0.85 47.2982 0.866666 48.0648 0.899999C48.8315 0.899999 49.6815 0.899999 50.6148 0.899999C51.5815 0.899999 52.5148 0.899999 53.4148 0.899999C54.2148 0.899999 55.0482 0.883333 55.9148 0.85C56.8148 0.816665 57.6482 0.783331 58.4148 0.749998C59.1815 0.683332 59.7982 0.633333 60.2648 0.6C60.7648 0.566665 61.0148 0.549998 61.0148 0.549998L61.2648 0.999998L61.0148 3.8C59.9482 3.86667 59.1648 4.01667 58.6648 4.25C58.1982 4.48333 57.9648 4.85 57.9648 5.35C57.9648 5.85 58.3815 6.76666 59.2148 8.1C60.0815 9.43333 61.1815 11.1 62.5148 13.1C62.9482 12.4333 63.4482 11.7 64.0148 10.9C64.5815 10.1 65.1148 9.31667 65.6148 8.55C66.1482 7.78333 66.5815 7.1 66.9148 6.5C67.2815 5.86667 67.4648 5.41667 67.4648 5.15C67.4648 4.71666 67.2815 4.41666 66.9148 4.25C66.5482 4.05 65.9148 3.91667 65.0148 3.85L64.9148 3.6L65.2148 0.749998C65.6148 0.749998 66.1815 0.766664 66.9148 0.799997C67.6815 0.799997 68.4815 0.816665 69.3148 0.85C70.1815 0.883333 70.9982 0.899999 71.7648 0.899999C72.5648 0.899999 73.3815 0.899999 74.2148 0.899999C75.0815 0.866666 75.8148 0.833332 76.4148 0.799997C77.0148 0.766664 77.3148 0.749998 77.3148 0.749998L77.5148 1.1L77.2148 4.1C76.2148 4.43333 75.3482 4.81667 74.6148 5.25C73.9148 5.68333 73.2648 6.23333 72.6648 6.9C72.0648 7.53333 71.3815 8.36667 70.6148 9.4L65.1648 16.9L71.1648 25.5C72.1315 26.8667 73.1148 27.8833 74.1148 28.55C75.1148 29.2167 76.3148 29.6 77.7148 29.7L77.8648 29.9L77.4648 33.1C77.4648 33.1 77.2315 33.0833 76.7648 33.05C76.2982 33.05 75.7148 33.0333 75.0148 33C74.3482 33 73.6482 33 72.9148 33C72.1815 32.9667 71.5482 32.95 71.0148 32.95C70.5148 32.95 69.8815 32.9667 69.1148 33C68.3815 33.0333 67.5982 33.0667 66.7648 33.1C65.9648 33.1333 65.1982 33.1667 64.4648 33.2C63.7648 33.2333 63.1982 33.2667 62.7648 33.3C62.3315 33.3333 62.1148 33.35 62.1148 33.35ZM83.698 33.3L84.098 30.05C85.598 29.9167 86.698 29.7167 87.398 29.45C88.098 29.1833 88.548 28.7 88.748 28C88.9814 27.2667 89.098 26.1833 89.098 24.75V4.7C87.7314 4.76667 86.648 4.86667 85.848 5C85.048 5.13333 84.4314 5.41666 83.998 5.85C83.598 6.28333 83.298 6.93333 83.098 7.8C82.898 8.63333 82.7314 9.78333 82.598 11.25L78.498 11.55C78.598 10.4167 78.6814 9.21666 78.748 7.95C78.848 6.65 78.9147 5.38333 78.948 4.15C79.0147 2.91667 79.0647 1.83333 79.098 0.899999L79.648 0.349997L84.598 0.899999H100.198L105.248 0.349997L105.798 0.899999C105.831 2 105.865 3.2 105.898 4.5C105.931 5.76667 105.981 6.98333 106.048 8.15C106.148 9.31667 106.231 10.35 106.298 11.25L102.198 11.55C102.031 9.98333 101.848 8.75 101.648 7.85C101.448 6.95 101.148 6.3 100.748 5.9C100.381 5.46667 99.8147 5.18333 99.048 5.05C98.3147 4.88333 97.3147 4.76667 96.048 4.7C95.948 5.86667 95.8647 7.31667 95.798 9.05C95.7314 10.75 95.6814 12.6 95.648 14.6C95.6147 16.5667 95.5647 18.5667 95.498 20.6C95.4647 22.6333 95.448 24.5333 95.448 26.3C95.448 27.5667 95.6647 28.4667 96.098 29C96.5314 29.5 97.2314 29.75 98.198 29.75C99.0314 29.75 99.9147 29.7 100.848 29.6L101.048 29.85L100.598 33.2C99.7314 33.1667 98.748 33.1333 97.648 33.1C96.548 33.0667 95.4814 33.0333 94.448 33C93.4147 33 92.598 33 91.998 33C91.4314 33 90.6647 33 89.698 33C88.7647 33.0333 87.7647 33.0667 86.698 33.1C85.6647 33.1667 84.6647 33.2333 83.698 33.3ZM121.757 33.4L121.507 33L121.757 30.05C122.857 29.95 123.674 29.85 124.207 29.75C124.74 29.6167 125.107 29.4333 125.307 29.2C125.507 28.9667 125.607 28.65 125.607 28.25C125.607 28.0167 125.59 27.7667 125.557 27.5C125.524 27.2 125.457 26.8667 125.357 26.5L124.307 22.65C123.674 22.6167 122.89 22.6 121.957 22.6C121.057 22.5667 120.307 22.55 119.707 22.55C118.907 22.55 118.057 22.6 117.157 22.7C116.257 22.7667 115.507 22.8333 114.907 22.9L113.657 26.75C113.457 27.4833 113.357 28 113.357 28.3C113.357 28.9 113.524 29.3167 113.857 29.55C114.224 29.7833 114.84 29.9 115.707 29.9H117.857L118.107 30.25L117.757 33.3C117.757 33.3 117.357 33.2667 116.557 33.2C115.79 33.1667 114.84 33.1167 113.707 33.05C112.607 33.0167 111.524 33 110.457 33C109.557 33 108.64 33 107.707 33C106.774 33.0333 105.99 33.0667 105.357 33.1C104.757 33.1333 104.457 33.15 104.457 33.15L104.807 29.9C105.607 29.7667 106.257 29.45 106.757 28.95C107.257 28.45 107.707 27.6333 108.107 26.5L117.057 1.15L124.707 0.349997L125.257 0.6C125.257 0.6 125.357 1.03333 125.557 1.9C125.79 2.76667 126.107 3.93333 126.507 5.4C126.907 6.83333 127.357 8.46667 127.857 10.3C128.357 12.1333 128.857 14.0167 129.357 15.95C129.89 17.8833 130.424 19.7667 130.957 21.6C131.49 23.4 131.99 25.0167 132.457 26.45C132.79 27.65 133.24 28.5 133.807 29C134.407 29.5 135.274 29.8 136.407 29.9L136.607 30.25L136.257 33.15C136.257 33.15 135.89 33.1333 135.157 33.1C134.457 33.0667 133.624 33.0333 132.657 33C131.724 33 130.89 33 130.157 33C128.757 33 127.407 33.0333 126.107 33.1C124.807 33.1667 123.757 33.2333 122.957 33.3C122.157 33.3667 121.757 33.4 121.757 33.4ZM116.107 18.7H119.707C120.24 18.7 120.857 18.6833 121.557 18.65C122.29 18.6167 122.907 18.5833 123.407 18.55L120.457 7.4H119.807L116.107 18.7ZM151.922 33.6C148.822 33.6 146.156 32.9667 143.922 31.7C141.722 30.4333 140.022 28.6167 138.822 26.25C137.622 23.8833 137.022 21.0833 137.022 17.85C137.022 14.2167 137.722 11.1 139.122 8.5C140.556 5.86667 142.606 3.85 145.272 2.45C147.939 1.01667 151.106 0.299998 154.772 0.299998C155.872 0.299998 157.006 0.366665 158.172 0.499998C159.339 0.633332 160.406 0.783332 161.372 0.949998C162.372 1.11666 163.172 1.26666 163.772 1.4C164.372 1.5 164.672 1.55 164.672 1.55L165.022 2.2C165.022 2.2 164.939 2.6 164.772 3.4C164.606 4.2 164.406 5.3 164.172 6.7C163.972 8.06667 163.822 9.6 163.722 11.3L158.922 11.65C158.922 11.65 158.939 11.3833 158.972 10.85C159.039 10.2833 159.072 9.63333 159.072 8.9C159.072 7.5 158.656 6.51666 157.822 5.95C156.989 5.35 155.572 5.05 153.572 5.05C151.572 5.05 149.906 5.45 148.572 6.25C147.239 7.05 146.222 8.28333 145.522 9.95C144.856 11.5833 144.522 13.65 144.522 16.15C144.522 18.8833 144.872 21.2167 145.572 23.15C146.272 25.0833 147.256 26.55 148.522 27.55C149.789 28.55 151.322 29.05 153.122 29.05C154.122 29.05 154.989 28.9333 155.722 28.7C156.489 28.4667 157.072 28.25 157.472 28.05C157.872 27.8167 158.072 27.7 158.072 27.7V22.95C158.072 21.95 157.922 21.3 157.622 21C157.356 20.7 156.756 20.55 155.822 20.55C155.522 20.55 155.156 20.55 154.722 20.55C154.322 20.55 153.972 20.55 153.672 20.55C153.372 20.55 153.222 20.55 153.222 20.55L152.972 20.15L153.472 16.6C153.872 16.6 154.439 16.6167 155.172 16.65C155.906 16.65 156.722 16.6667 157.622 16.7C158.556 16.7333 159.489 16.75 160.422 16.75C161.256 16.75 162.056 16.7333 162.822 16.7C163.589 16.6333 164.206 16.5833 164.672 16.55C165.172 16.5167 165.422 16.5 165.422 16.5L165.772 18.4C165.206 18.7667 164.772 19.2333 164.472 19.8C164.206 20.3333 164.022 21.1333 163.922 22.2C163.822 23.2333 163.772 24.7 163.772 26.6C163.772 27.5333 163.789 28.3833 163.822 29.15C163.889 29.8833 163.989 30.4833 164.122 30.95L163.672 31.55C163.672 31.55 163.189 31.7333 162.222 32.1C161.256 32.4333 159.889 32.7667 158.122 33.1C156.356 33.4333 154.289 33.6 151.922 33.6ZM170.187 33.5L170.537 30.15C171.937 29.95 172.887 29.55 173.387 28.95C173.887 28.35 174.137 27.3167 174.137 25.85L174.187 6.8C174.187 5.7 174.087 4.98333 173.887 4.65C173.687 4.28333 173.254 4.1 172.587 4.1C172.387 4.1 172.137 4.11667 171.837 4.15C171.537 4.15 171.27 4.16667 171.037 4.2L170.737 3.75L171.137 0.749998C171.904 0.749998 172.82 0.766664 173.887 0.799997C174.954 0.833332 176.037 0.866666 177.137 0.899999C178.27 0.899999 179.287 0.899999 180.187 0.899999C182.587 0.899999 184.737 0.883333 186.637 0.85C188.537 0.816665 190.204 0.749998 191.637 0.649999C193.104 0.549999 194.354 0.433331 195.387 0.299998L195.787 0.85C195.62 1.68333 195.454 2.63333 195.287 3.7C195.12 4.76667 194.987 5.85 194.887 6.95C194.787 8.01667 194.704 9 194.637 9.9L190.187 10.2C190.22 9.93333 190.237 9.6 190.237 9.2C190.27 8.76667 190.287 8.43333 190.287 8.2C190.287 7.5 190.22 6.95 190.087 6.55C189.954 6.11666 189.67 5.8 189.237 5.6C188.804 5.36667 188.154 5.21667 187.287 5.15C186.454 5.05 185.32 5 183.887 5C183.087 5 182.487 5.03333 182.087 5.1C181.72 5.16666 181.487 5.31666 181.387 5.55C181.287 5.78333 181.22 6.16666 181.187 6.7L180.687 17.55L180.537 26.15C180.537 27.05 180.604 27.7167 180.737 28.15C180.904 28.55 181.204 28.8167 181.637 28.95C182.104 29.0833 182.82 29.15 183.787 29.15C185.354 29.15 186.62 29.0833 187.587 28.95C188.554 28.8167 189.304 28.5667 189.837 28.2C190.37 27.8 190.77 27.2167 191.037 26.45C191.304 25.6833 191.52 24.6833 191.687 23.45L195.787 23.1L196.137 23.55C195.904 24.7833 195.654 26.2667 195.387 28C195.154 29.7333 194.954 31.3333 194.787 32.8L194.287 33.35C192.487 33.2833 190.604 33.2167 188.637 33.15C186.704 33.1167 184.87 33.0833 183.137 33.05C181.404 33.0167 179.937 33 178.737 33C177.537 33 176.137 33.0333 174.537 33.1C172.937 33.2 171.487 33.3333 170.187 33.5ZM180.037 19.1L180.437 14.55C180.67 14.55 181.087 14.55 181.687 14.55C182.287 14.55 182.937 14.5667 183.637 14.6C184.337 14.6 184.97 14.6 185.537 14.6C186.07 14.6 186.92 14.55 188.087 14.45C189.254 14.35 190.337 14.25 191.337 14.15L191.737 14.6L191.037 18.85C190.17 18.8167 189.087 18.7833 187.787 18.75C186.487 18.7167 185.387 18.7 184.487 18.7C183.754 18.7 182.97 18.75 182.137 18.85C181.304 18.9167 180.604 19 180.037 19.1Z" fill="black"/>
</svg>
