<svg width="34" height="29" viewBox="0 0 34 29" fill="none" xmlns="http://www.w3.org/2000/svg">
<path d="M17 13.1509C14.9972 13.1509 13.2819 12.5065 11.8539 11.2177C10.4259 9.92896 9.71267 8.38153 9.71429 6.57547C9.71429 4.76648 10.4275 3.21759 11.8539 1.9288C13.2802 0.642934 14.9956 0 17 0C19.0044 0 20.7198 0.642934 22.1461 1.9288C23.5725 3.21759 24.2857 4.76648 24.2857 6.57547C24.2857 8.38299 23.5725 9.93042 22.1461 11.2177C20.7198 12.5051 19.0044 13.1495 17 13.1509ZM0 28.9978V25.3923C0 24.4878 0.291429 23.6417 0.874286 22.8541C1.45876 22.0651 2.244 21.4528 3.23 21.0174C5.52257 20.0252 7.81595 19.2815 10.1101 18.7861C12.406 18.2893 14.7026 18.0409 17 18.0409C19.299 18.0409 21.5957 18.2893 23.8899 18.7861C26.184 19.2829 28.4766 20.0267 30.7676 21.0174C31.7552 21.4528 32.5404 22.0651 33.1233 22.8541C33.7078 23.6417 34 24.4878 34 25.3923V29L0 28.9978Z" fill="black"/>
</svg>
